<?xml version="1.0" encoding="UTF-8" standalone="no"?>
<svg
   style="fill-opacity:1; color-rendering:auto; color-interpolation:auto; text-rendering:auto; stroke:black; stroke-linecap:square; stroke-miterlimit:10; shape-rendering:auto; stroke-opacity:1; fill:black; stroke-dasharray:none; font-weight:normal; stroke-width:1; font-family:'Dialog'; font-style:normal; stroke-linejoin:miter; font-size:12px; stroke-dashoffset:0; image-rendering:auto;"
   width="1120"
   height="840"
   version="1.1"
   id="svg273"
   sodipodi:docname="volume_error_1_4.svg"
   inkscape:version="1.1 (c68e22c387, 2021-05-23)"
   xmlns:inkscape="http://www.inkscape.org/namespaces/inkscape"
   xmlns:sodipodi="http://sodipodi.sourceforge.net/DTD/sodipodi-0.dtd"
   xmlns="http://www.w3.org/2000/svg"
   xmlns:svg="http://www.w3.org/2000/svg">
  <sodipodi:namedview
     id="namedview275"
     pagecolor="#ffffff"
     bordercolor="#666666"
     borderopacity="1.0"
     inkscape:pageshadow="2"
     inkscape:pageopacity="0.0"
     inkscape:pagecheckerboard="0"
     showgrid="false"
     inkscape:zoom="0.34583333"
     inkscape:cx="591.3253"
     inkscape:cy="620.24096"
     inkscape:window-width="1368"
     inkscape:window-height="809"
     inkscape:window-x="-6"
     inkscape:window-y="-6"
     inkscape:window-maximized="1"
     inkscape:current-layer="svg273" />
  <!--Generated by the Batik Graphics2D SVG Generator-->
  <defs
     id="genericDefs">
    <defs
       id="defs1">
      <clipPath
         clipPathUnits="userSpaceOnUse"
         id="clipPath1">
        <path
           d="M0 0 L1120 0 L1120 840 L0 840 L0 0 Z"
           id="path3" />
      </clipPath>
    </defs>
  </defs>
  <g
     style="fill:#ffffff;stroke:#ffffff"
     id="g9">
    <rect
       x="0"
       y="0"
       width="1120"
       style="stroke:none"
       height="840"
       clip-path="url(#clipPath1)"
       id="rect7" />
  </g>
  <g
     style="color-interpolation:sRGB;fill:#ffffff;stroke:#ffffff;color-rendering:optimizeSpeed;image-rendering:optimizeSpeed;shape-rendering:crispEdges;text-rendering:optimizeSpeed"
     id="g15">
    <rect
       x="0"
       width="1120"
       height="840"
       y="0"
       style="stroke:none"
       id="rect11" />
    <path
       style="stroke:none"
       d="m 146,748 h 868 V 63 H 146 Z"
       id="path13" />
  </g>
  <g
     style="color-interpolation:linearRGB;fill:#262626;stroke:#262626;stroke-width:1.3333;stroke-linecap:butt;stroke-linejoin:round;color-rendering:optimizeQuality;image-rendering:optimizeQuality;text-rendering:geometricPrecision"
     id="g19">
    <line
       y2="748"
       style="fill:none"
       x1="146"
       x2="1014"
       y1="748"
       id="line17" />
  </g>
  <g
     style="color-interpolation:sRGB;fill:#0072bd;stroke:#0072bd;color-rendering:optimizeSpeed;image-rendering:optimizeSpeed;shape-rendering:crispEdges;text-rendering:optimizeSpeed"
     id="g23">
    <path
       style="stroke:none"
       d="M 209.4155,748 V 697.3213 H 177.7078 V 748 Z m 217.9909,0 V 697.6707 H 395.6986 V 748 Z m 217.9909,0 V 222.8728 H 613.6895 V 748 Z m 217.9908,0 V 692.8904 H 831.6804 V 748 Z"
       id="path21" />
  </g>
  <g
     style="color-interpolation:linearRGB;stroke-width:1.3333;stroke-linecap:butt;color-rendering:optimizeQuality;image-rendering:optimizeQuality;text-rendering:geometricPrecision"
     id="g33">
    <path
       d="m 177.7078,748 v -50.6787 h 31.7077 V 748 Z"
       style="fill:none;fill-rule:evenodd"
       id="path25" />
    <path
       d="m 395.6986,748 v -50.3293 h 31.7078 V 748 Z"
       style="fill:none;fill-rule:evenodd"
       id="path27" />
    <path
       d="M 613.6895,748 V 222.8728 h 31.7078 V 748 Z"
       style="fill:none;fill-rule:evenodd"
       id="path29" />
    <path
       d="m 831.6804,748 v -55.1096 h 31.7077 V 748 Z"
       style="fill:none;fill-rule:evenodd"
       id="path31" />
  </g>
  <g
     style="color-interpolation:sRGB;fill:#d95319;stroke:#d95319;color-rendering:optimizeSpeed;image-rendering:optimizeSpeed;shape-rendering:crispEdges;text-rendering:optimizeSpeed"
     id="g37">
    <path
       style="stroke:none"
       d="M 249.0502,748 V 714.0815 H 217.3425 V 748 Z m 217.9909,0 V 665.8083 H 435.3333 V 748 Z m 217.9909,0 V 604.8782 H 653.3242 V 748 Z m 217.9908,0 V 655.8561 H 871.3151 V 748 Z"
       id="path35" />
  </g>
  <g
     style="color-interpolation:linearRGB;stroke-width:1.3333;stroke-linecap:butt;color-rendering:optimizeQuality;image-rendering:optimizeQuality;text-rendering:geometricPrecision"
     id="g47">
    <path
       d="m 217.3425,748 v -33.9185 h 31.7077 V 748 Z"
       style="fill:none;fill-rule:evenodd"
       id="path39" />
    <path
       d="m 435.3333,748 v -82.1917 h 31.7078 V 748 Z"
       style="fill:none;fill-rule:evenodd"
       id="path41" />
    <path
       d="M 653.3242,748 V 604.8782 H 685.032 V 748 Z"
       style="fill:none;fill-rule:evenodd"
       id="path43" />
    <path
       d="m 871.3151,748 v -92.1439 h 31.7077 V 748 Z"
       style="fill:none;fill-rule:evenodd"
       id="path45" />
  </g>
  <g
     style="color-interpolation:sRGB;fill:#edb120;stroke:#edb120;color-rendering:optimizeSpeed;image-rendering:optimizeSpeed;shape-rendering:crispEdges;text-rendering:optimizeSpeed"
     id="g51">
    <path
       style="stroke:none"
       d="M 288.6849,748 V 732.1921 H 256.9772 V 748 Z m 217.9909,0 V 696.6455 H 474.968 V 748 Z m 217.9909,0 V 425.6064 H 692.9589 V 748 Z m 217.9908,0 V 670.1705 H 910.9498 V 748 Z"
       id="path49" />
  </g>
  <g
     style="color-interpolation:linearRGB;stroke-width:1.3333;stroke-linecap:butt;color-rendering:optimizeQuality;image-rendering:optimizeQuality;text-rendering:geometricPrecision"
     id="g61">
    <path
       d="m 256.9772,748 v -15.8079 h 31.7077 V 748 Z"
       style="fill:none;fill-rule:evenodd"
       id="path53" />
    <path
       d="m 474.968,748 v -51.3545 h 31.7078 V 748 Z"
       style="fill:none;fill-rule:evenodd"
       id="path55" />
    <path
       d="M 692.9589,748 V 425.6064 h 31.7078 V 748 Z"
       style="fill:none;fill-rule:evenodd"
       id="path57" />
    <path
       d="m 910.9498,748 v -77.8295 h 31.7077 V 748 Z"
       style="fill:none;fill-rule:evenodd"
       id="path59" />
  </g>
  <g
     style="color-interpolation:sRGB;fill:#7e2f8e;stroke:#7e2f8e;color-rendering:optimizeSpeed;image-rendering:optimizeSpeed;shape-rendering:crispEdges;text-rendering:optimizeSpeed"
     id="g65">
    <path
       style="stroke:none"
       d="M 328.3196,748 V 685.0025 H 296.6119 V 748 Z m 217.9909,0 V 638.7947 H 514.6027 V 748 Z m 217.9908,0 V 115.4022 H 732.5936 V 748 Z m 217.991,0 V 615.3915 H 950.5844 V 748 Z"
       id="path63" />
  </g>
  <g
     style="color-interpolation:linearRGB;stroke-width:1.3333;stroke-linecap:butt;color-rendering:optimizeQuality;image-rendering:optimizeQuality;text-rendering:geometricPrecision"
     id="g75">
    <path
       d="m 296.6119,748 v -62.9975 h 31.7077 V 748 Z"
       style="fill:none;fill-rule:evenodd"
       id="path67" />
    <path
       d="M 514.6027,748 V 638.7947 h 31.7078 V 748 Z"
       style="fill:none;fill-rule:evenodd"
       id="path69" />
    <path
       d="M 732.5936,748 V 115.4022 h 31.7077 V 748 Z"
       style="fill:none;fill-rule:evenodd"
       id="path71" />
    <path
       d="M 950.5844,748 V 615.3915 h 31.7079 V 748 Z"
       style="fill:none;fill-rule:evenodd"
       id="path73" />
  </g>
  <g
     style="color-interpolation:linearRGB;fill:#262626;stroke:#262626;stroke-width:1.3333;stroke-linejoin:round;color-rendering:optimizeQuality;image-rendering:optimizeQuality;text-rendering:geometricPrecision"
     id="g97">
    <line
       y2="748"
       style="fill:none"
       x1="146"
       x2="1014"
       y1="748"
       id="line77" />
    <line
       y2="63"
       style="fill:none"
       x1="146"
       x2="1014"
       y1="63"
       id="line79" />
    <line
       y2="739.32001"
       style="fill:none"
       x1="253.0137"
       x2="253.0137"
       y1="748"
       id="line81" />
    <line
       y2="739.32001"
       style="fill:none"
       x1="471.00461"
       x2="471.00461"
       y1="748"
       id="line83" />
    <line
       y2="739.32001"
       style="fill:none"
       x1="688.99542"
       x2="688.99542"
       y1="748"
       id="line85" />
    <line
       y2="739.32001"
       style="fill:none"
       x1="906.98633"
       x2="906.98633"
       y1="748"
       id="line87" />
    <line
       y2="71.68"
       style="fill:none"
       x1="253.0137"
       x2="253.0137"
       y1="63"
       id="line89" />
    <line
       y2="71.68"
       style="fill:none"
       x1="471.00461"
       x2="471.00461"
       y1="63"
       id="line91" />
    <line
       y2="71.68"
       style="fill:none"
       x1="688.99542"
       x2="688.99542"
       y1="63"
       id="line93" />
    <line
       y2="71.68"
       style="fill:none"
       x1="906.98633"
       x2="906.98633"
       y1="63"
       id="line95" />
  </g>
  <g
     transform="translate(253.0137,758.6667)"
     style="font-size:26.6667px;font-family:SansSerif;color-interpolation:linearRGB;fill:#262626;stroke:#262626;color-rendering:optimizeQuality;image-rendering:optimizeQuality;text-rendering:geometricPrecision"
     id="g101">
    <path
       style="stroke:none"
       d="M 2.5625,27 H 0.1875 V 11.875 q -0.8594,0.8281 -2.25,1.6406 -1.3906,0.8125 -2.5,1.2188 v -2.2969 q 2,-0.9219 3.4844,-2.2578 1.4843,-1.3359 2.1093,-2.5859 h 1.5313 z"
       id="path99" />
  </g>
  <g
     transform="translate(471.0046,758.6667)"
     style="font-size:26.6667px;font-family:SansSerif;color-interpolation:linearRGB;fill:#262626;stroke:#262626;color-rendering:optimizeQuality;image-rendering:optimizeQuality;text-rendering:geometricPrecision"
     id="g105">
    <path
       style="stroke:none"
       d="M 6.0938,24.7188 V 27 H -6.6875 q -0.0156,-0.8594 0.2813,-1.6406 0.4843,-1.3125 1.5624,-2.5782 1.0782,-1.2656 3.1094,-2.9218 3.1406,-2.5938 4.25,-4.1016 Q 3.625,14.25 3.625,12.9062 3.625,11.5 2.6172,10.5312 1.6094,9.5625 -0.0156,9.5625 q -1.7032,0 -2.7344,1.0234 -1.0312,1.0235 -1.0469,2.8516 l -2.4375,-0.25 q 0.25,-2.7344 1.8828,-4.1641 1.6328,-1.4296 4.3985,-1.4296 2.7812,0 4.3984,1.539 1.6172,1.5391 1.6172,3.8203 0,1.1719 -0.4766,2.2891 Q 5.1094,16.3594 4.0156,17.6016 2.9219,18.8438 0.3594,21 q -2.1406,1.7969 -2.7422,2.4375 -0.6016,0.6406 -1.0078,1.2813 z"
       id="path103" />
  </g>
  <g
     transform="translate(688.9954,758.6667)"
     style="font-size:26.6667px;font-family:SansSerif;color-interpolation:linearRGB;fill:#262626;stroke:#262626;color-rendering:optimizeQuality;image-rendering:optimizeQuality;text-rendering:geometricPrecision"
     id="g109">
    <path
       style="stroke:none"
       d="M -6.3594,21.8906 -4,21.5781 q 0.4219,2.0157 1.3984,2.9063 0.9766,0.8906 2.3985,0.8906 1.6719,0 2.8203,-1.1562 1.1484,-1.1563 1.1484,-2.875 0,-1.6407 -1.0625,-2.6954 -1.0625,-1.0546 -2.7187,-1.0546 -0.6719,0 -1.6719,0.25 l 0.2656,-2.0782 q 0.2344,0.0313 0.375,0.0313 1.5157,0 2.7344,-0.7891 1.2187,-0.789 1.2187,-2.4453 0,-1.2969 -0.8828,-2.1563 -0.8828,-0.8593 -2.289,-0.8593 -1.375,0 -2.2969,0.8672 -0.9219,0.8671 -1.1875,2.6171 l -2.375,-0.4218 q 0.4375,-2.3906 1.9766,-3.7032 1.539,-1.3124 3.8359,-1.3124 1.5781,0 2.9141,0.6796 1.3359,0.6797 2.039,1.8516 0.7032,1.1719 0.7032,2.4844 0,1.2656 -0.6719,2.289 -0.6719,1.0235 -2,1.6328 1.7187,0.3907 2.6719,1.6407 0.9531,1.25 0.9531,3.125 0,2.5312 -1.8516,4.289 -1.8515,1.7579 -4.6641,1.7579 -2.5468,0 -4.2265,-1.5157 -1.6797,-1.5156 -1.9141,-3.9375 z"
       id="path107" />
  </g>
  <g
     transform="translate(906.9863,758.6667)"
     style="font-size:26.6667px;font-family:SansSerif;color-interpolation:linearRGB;fill:#262626;stroke:#262626;color-rendering:optimizeQuality;image-rendering:optimizeQuality;text-rendering:geometricPrecision"
     id="g113">
    <path
       style="stroke:none"
       d="M 1.2344,27 V 22.375 H -7.1562 V 20.2031 L 1.6562,7.6719 h 1.9376 v 12.5312 h 2.625 V 22.375 H 3.5938 V 27 Z m 0,-6.7969 v -8.7187 l -6.0625,8.7187 z"
       id="path111" />
  </g>
  <g
     transform="translate(580.0004,794.3333)"
     style="font-size:29.3333px;font-family:SansSerif;color-interpolation:linearRGB;fill:#262626;stroke:#262626;color-rendering:optimizeQuality;image-rendering:optimizeQuality;text-rendering:geometricPrecision"
     id="g117">
    <path
       style="stroke:none"
       d="m -70.9531,22.7188 2.75,0.7031 q -0.8594,3.375 -3.1094,5.1562 -2.25,1.7813 -5.4844,1.7813 -3.3593,0 -5.4609,-1.3672 -2.1016,-1.3672 -3.2031,-3.961 -1.1016,-2.5937 -1.1016,-5.5624 0,-3.25 1.2422,-5.6641 1.2422,-2.4141 3.5312,-3.6641 2.2891,-1.25 5.0391,-1.25 3.1094,0 5.2344,1.586 2.125,1.5859 2.9531,4.4609 l -2.7031,0.6406 q -0.7188,-2.2656 -2.0938,-3.3047 -1.375,-1.039 -3.4531,-1.039 -2.3906,0 -4,1.1484 -1.6094,1.1484 -2.2578,3.0781 -0.6485,1.9297 -0.6485,3.9922 0,2.6407 0.7657,4.6172 0.7656,1.9766 2.3984,2.9531 1.6328,0.9766 3.5235,0.9766 2.3124,0 3.914,-1.3281 1.6016,-1.3281 2.1641,-3.9531 z m 15.8404,5.4218 q -1.4063,1.2032 -2.7188,1.7032 -1.3125,0.5 -2.8125,0.5 -2.4843,0 -3.8125,-1.211 -1.3281,-1.2109 -1.3281,-3.1016 0,-1.0937 0.5,-2.0078 0.5,-0.914 1.3203,-1.4687 0.8203,-0.5547 1.836,-0.8359 0.75,-0.2032 2.2656,-0.3907 3.0781,-0.3593 4.5469,-0.875 0.0156,-0.5156 0.0156,-0.6562 0,-1.5625 -0.7344,-2.2031 -0.9687,-0.8594 -2.8906,-0.8594 -1.7969,0 -2.6563,0.625 -0.8593,0.625 -1.2656,2.2344 l -2.5,-0.3438 q 0.3438,-1.5938 1.125,-2.5781 0.7813,-0.9844 2.25,-1.5157 1.4688,-0.5312 3.4063,-0.5312 1.9375,0 3.1406,0.4531 1.2031,0.4531 1.7656,1.1407 0.5625,0.6874 0.7969,1.7343 0.125,0.6407 0.125,2.3438 v 3.4062 q 0,3.5469 0.1641,4.4922 0.164,0.9453 0.6328,1.8047 h -2.6563 q -0.3906,-0.7969 -0.5156,-1.8594 z m -0.2031,-5.6875 q -1.3907,0.5625 -4.1719,0.9688 -1.5625,0.2187 -2.2188,0.5 -0.6562,0.2812 -1.0078,0.8281 -0.3515,0.5469 -0.3515,1.2188 0,1.0156 0.7734,1.6953 0.7734,0.6797 2.2578,0.6797 1.4688,0 2.6172,-0.6485 1.1484,-0.6484 1.6953,-1.7578 0.4063,-0.8594 0.4063,-2.5469 z m 5.6772,3.0625 2.5156,-0.4062 q 0.2188,1.5156 1.1875,2.3281 0.9688,0.8125 2.7188,0.8125 1.75,0 2.6015,-0.7188 0.8516,-0.7187 0.8516,-1.6874 0,-0.8594 -0.75,-1.3594 -0.5313,-0.3282 -2.6094,-0.8594 -2.7969,-0.7031 -3.8828,-1.2188 -1.0859,-0.5156 -1.6484,-1.4296 -0.5625,-0.9141 -0.5625,-2.0235 0,-1 0.4609,-1.8593 0.4609,-0.8594 1.2578,-1.4219 0.5938,-0.4375 1.6172,-0.7422 1.0234,-0.3047 2.2109,-0.3047 1.7657,0 3.1016,0.5078 1.3359,0.5078 1.9766,1.3828 0.6406,0.875 0.875,2.3282 l -2.4844,0.3437 q -0.1719,-1.1719 -0.9844,-1.8203 -0.8125,-0.6484 -2.3125,-0.6484 -1.75,0 -2.5,0.5781 -0.75,0.5781 -0.75,1.3593 0,0.5 0.3125,0.8907 0.3125,0.4062 0.9688,0.6875 0.3906,0.1406 2.2656,0.6406 2.7031,0.7344 3.7656,1.1875 1.0625,0.4531 1.6719,1.3359 0.6094,0.8828 0.6094,2.1797 0,1.2813 -0.7422,2.4063 -0.7422,1.125 -2.1406,1.7422 -1.3985,0.6172 -3.1641,0.6172 -2.9375,0 -4.4766,-1.2188 -1.539,-1.2188 -1.9609,-3.6094 z m 25.9687,-0.3594 2.6407,0.3282 q -0.625,2.3125 -2.3125,3.5859 -1.6875,1.2735 -4.2969,1.2735 -3.3125,0 -5.2422,-2.0313 -1.9297,-2.0313 -1.9297,-5.7031 0,-3.7969 1.9531,-5.8906 1.9532,-2.0938 5.0625,-2.0938 3.0313,0 4.9375,2.0547 1.9063,2.0547 1.9063,5.7734 0,0.2188 -0.0156,0.6719 h -11.2032 q 0.1407,2.4844 1.3985,3.8047 1.2578,1.3203 3.1328,1.3203 1.4062,0 2.3984,-0.7422 0.9922,-0.7422 1.5703,-2.3516 z m -8.3593,-4.125 h 8.3906 q -0.1719,-1.8906 -0.9688,-2.8437 -1.2187,-1.4687 -3.1562,-1.4687 -1.75,0 -2.9453,1.1718 -1.1953,1.1719 -1.3203,3.1406 z M -9.5206,30 V 14.9688 h 2.2969 v 2.125 q 1.6563,-2.4688 4.7813,-2.4688 1.3593,0 2.5,0.4844 1.1406,0.4844 1.7109,1.2812 0.5703,0.7969 0.7891,1.8906 0.1406,0.7032 0.1406,2.4688 V 30 H 0.1513 v -9.1406 q 0,-1.5625 -0.2969,-2.336 -0.2968,-0.7734 -1.0547,-1.2343 -0.7578,-0.461 -1.7734,-0.461 -1.625,0 -2.8125,1.0313 -1.1875,1.0312 -1.1875,3.9218 V 30 Z m 26.1616,0 v -2.2031 q -1.75,2.5469 -4.7656,2.5469 -1.3281,0 -2.4844,-0.5157 Q 8.2348,29.3125 7.6723,28.5469 7.1098,27.7812 6.891,26.6562 6.7348,25.9062 6.7348,24.2812 v -9.3124 h 2.5468 v 8.3281 q 0,2 0.1563,2.7031 0.2344,1 1.0156,1.5703 0.7813,0.5703 1.9219,0.5703 1.1562,0 2.1562,-0.5859 1,-0.5859 1.4219,-1.6016 0.4219,-1.0156 0.4219,-2.9375 v -8.0468 h 2.5469 V 30 Z m 6.4429,0 V 14.9688 h 2.2812 v 2.1093 q 0.7188,-1.1093 1.8906,-1.7812 1.1719,-0.6719 2.6719,-0.6719 1.6719,0 2.7422,0.6953 1.0703,0.6953 1.5078,1.9297 1.7813,-2.625 4.6406,-2.625 2.2344,0 3.4375,1.2344 1.2032,1.2344 1.2032,3.8125 V 30 h -2.5313 v -9.4688 q 0,-1.5312 -0.2422,-2.2031 -0.2422,-0.6719 -0.8984,-1.0859 -0.6563,-0.4141 -1.5313,-0.4141 -1.5937,0 -2.6406,1.0547 -1.0469,1.0547 -1.0469,3.3828 V 30 h -2.5468 v -9.7656 q 0,-1.7032 -0.625,-2.5547 -0.625,-0.8516 -2.0313,-0.8516 -1.0781,0 -1.9922,0.5703 -0.914,0.5704 -1.3281,1.6563 -0.4141,1.0859 -0.4141,3.1484 V 30 Z m 26.7769,0 h -2.375 V 9.2344 h 2.5625 v 7.4062 q 1.6094,-2.0156 4.1094,-2.0156 1.3906,0 2.6328,0.5547 1.2422,0.5547 2.039,1.5703 0.7969,1.0156 1.25,2.4453 0.4532,1.4297 0.4532,3.0547 0,3.875 -1.9141,5.9844 -1.9141,2.1094 -4.5859,2.1094 -2.6563,0 -4.1719,-2.2344 z m -0.0313,-7.625 q 0,2.7031 0.7344,3.9062 1.2031,1.9688 3.2656,1.9688 1.6563,0 2.875,-1.4531 1.2188,-1.4531 1.2188,-4.3281 0,-2.9532 -1.1641,-4.3516 -1.164,-1.3984 -2.8203,-1.3984 -1.6719,0 -2.8906,1.4531 -1.2188,1.4531 -1.2188,4.2031 z m 24.271,2.7812 2.6406,0.3282 q -0.625,2.3125 -2.3125,3.5859 -1.6875,1.2735 -4.2969,1.2735 -3.3125,0 -5.2421,-2.0313 -1.9297,-2.0313 -1.9297,-5.7031 0,-3.7969 1.9531,-5.8906 1.9531,-2.0938 5.0625,-2.0938 3.0312,0 4.9375,2.0547 1.9062,2.0547 1.9062,5.7734 0,0.2188 -0.0156,0.6719 H 65.6005 q 0.1406,2.4844 1.3984,3.8047 1.2578,1.3203 3.1328,1.3203 1.4063,0 2.3985,-0.7422 0.9922,-0.7422 1.5703,-2.3516 z m -8.3594,-4.125 h 8.3906 q -0.1718,-1.8906 -0.9687,-2.8437 -1.2188,-1.4687 -3.1563,-1.4687 -1.75,0 -2.9453,1.1718 -1.1953,1.1719 -1.3203,3.1406 z M 80.0902,30 V 14.9688 h 2.2813 v 2.2656 q 0.8906,-1.5938 1.6328,-2.1016 0.7422,-0.5078 1.6328,-0.5078 1.2812,0 2.6094,0.8125 l -0.875,2.375 Q 86.434,17.25 85.5121,17.25 q -0.8438,0 -1.5078,0.5078 -0.6641,0.5078 -0.9453,1.3984 -0.4219,1.3594 -0.4219,2.9688 V 30 Z"
       id="path115" />
  </g>
  <g
     style="color-interpolation:linearRGB;fill:#262626;stroke:#262626;stroke-width:1.3333;stroke-linejoin:round;color-rendering:optimizeQuality;image-rendering:optimizeQuality;text-rendering:geometricPrecision"
     id="g163">
    <line
       y2="63"
       style="fill:none"
       x1="146"
       x2="146"
       y1="748"
       id="line119" />
    <line
       y2="63"
       style="fill:none"
       x1="1014"
       x2="1014"
       y1="748"
       id="line121" />
    <line
       y2="748"
       style="fill:none"
       x1="146"
       x2="154.67999"
       y1="748"
       id="line123" />
    <line
       y2="671.88892"
       style="fill:none"
       x1="146"
       x2="154.67999"
       y1="671.88892"
       id="line125" />
    <line
       y2="595.77777"
       style="fill:none"
       x1="146"
       x2="154.67999"
       y1="595.77777"
       id="line127" />
    <line
       y2="519.66669"
       style="fill:none"
       x1="146"
       x2="154.67999"
       y1="519.66669"
       id="line129" />
    <line
       y2="443.55551"
       style="fill:none"
       x1="146"
       x2="154.67999"
       y1="443.55551"
       id="line131" />
    <line
       y2="367.44449"
       style="fill:none"
       x1="146"
       x2="154.67999"
       y1="367.44449"
       id="line133" />
    <line
       y2="291.33331"
       style="fill:none"
       x1="146"
       x2="154.67999"
       y1="291.33331"
       id="line135" />
    <line
       y2="215.2222"
       style="fill:none"
       x1="146"
       x2="154.67999"
       y1="215.2222"
       id="line137" />
    <line
       y2="139.1111"
       style="fill:none"
       x1="146"
       x2="154.67999"
       y1="139.1111"
       id="line139" />
    <line
       y2="63"
       style="fill:none"
       x1="146"
       x2="154.67999"
       y1="63"
       id="line141" />
    <line
       y2="748"
       style="fill:none"
       x1="1014"
       x2="1005.32"
       y1="748"
       id="line143" />
    <line
       y2="671.88892"
       style="fill:none"
       x1="1014"
       x2="1005.32"
       y1="671.88892"
       id="line145" />
    <line
       y2="595.77777"
       style="fill:none"
       x1="1014"
       x2="1005.32"
       y1="595.77777"
       id="line147" />
    <line
       y2="519.66669"
       style="fill:none"
       x1="1014"
       x2="1005.32"
       y1="519.66669"
       id="line149" />
    <line
       y2="443.55551"
       style="fill:none"
       x1="1014"
       x2="1005.32"
       y1="443.55551"
       id="line151" />
    <line
       y2="367.44449"
       style="fill:none"
       x1="1014"
       x2="1005.32"
       y1="367.44449"
       id="line153" />
    <line
       y2="291.33331"
       style="fill:none"
       x1="1014"
       x2="1005.32"
       y1="291.33331"
       id="line155" />
    <line
       y2="215.2222"
       style="fill:none"
       x1="1014"
       x2="1005.32"
       y1="215.2222"
       id="line157" />
    <line
       y2="139.1111"
       style="fill:none"
       x1="1014"
       x2="1005.32"
       y1="139.1111"
       id="line159" />
    <line
       y2="63"
       style="fill:none"
       x1="1014"
       x2="1005.32"
       y1="63"
       id="line161" />
  </g>
  <g
     transform="translate(135.3333,748)"
     style="font-size:26.6667px;font-family:SansSerif;color-interpolation:linearRGB;fill:#262626;stroke:#262626;color-rendering:optimizeQuality;image-rendering:optimizeQuality;text-rendering:geometricPrecision"
     id="g167">
    <path
       style="stroke:none"
       d="m -13.875,0.9688 q 0,-3.4219 0.7031,-5.5157 0.7031,-2.0937 2.0938,-3.2265 1.3906,-1.1328 3.5,-1.1328 1.5625,0 2.7343,0.625 1.1719,0.625 1.9376,1.8046 0.7656,1.1797 1.1953,2.875 0.4297,1.6954 0.4297,4.5704 0,3.4062 -0.6954,5.4921 -0.6953,2.086 -2.0859,3.2266 -1.3906,1.1406 -3.5156,1.1406 -2.7969,0 -4.3907,-2 -1.9062,-2.4219 -1.9062,-7.8593 z m 2.4375,0 q 0,4.7656 1.1094,6.3359 1.1093,1.5703 2.75,1.5703 1.6406,0 2.75,-1.5781 1.1093,-1.5781 1.1093,-6.3281 0,-4.7657 -1.1093,-6.336 -1.1094,-1.5703 -2.7813,-1.5703 -1.625,0 -2.6094,1.375 -1.2187,1.7656 -1.2187,6.5313 z"
       id="path165" />
  </g>
  <g
     transform="translate(135.3333,671.8889)"
     style="font-size:26.6667px;font-family:SansSerif;color-interpolation:linearRGB;fill:#262626;stroke:#262626;color-rendering:optimizeQuality;image-rendering:optimizeQuality;text-rendering:geometricPrecision"
     id="g171">
    <path
       style="stroke:none"
       d="m -36.875,0.9688 q 0,-3.4219 0.7031,-5.5157 0.7031,-2.0937 2.0938,-3.2265 1.3906,-1.1328 3.5,-1.1328 1.5625,0 2.7343,0.625 1.1719,0.625 1.9376,1.8046 0.7656,1.1797 1.1953,2.875 0.4297,1.6954 0.4297,4.5704 0,3.4062 -0.6954,5.4921 -0.6953,2.086 -2.0859,3.2266 -1.3906,1.1406 -3.5156,1.1406 -2.7969,0 -4.3907,-2 -1.9062,-2.4219 -1.9062,-7.8593 z m 2.4375,0 q 0,4.7656 1.1094,6.3359 1.1093,1.5703 2.75,1.5703 1.6406,0 2.75,-1.5781 1.1093,-1.5781 1.1093,-6.3281 0,-4.7657 -1.1093,-6.336 -1.1094,-1.5703 -2.7813,-1.5703 -1.625,0 -2.6094,1.375 -1.2187,1.7656 -1.2187,6.5313 z M -20.7219,10.5 V 7.7969 h 2.7031 V 10.5 Z M -2.1754,8.2188 V 10.5 h -12.7812 q -0.0156,-0.8594 0.2812,-1.6406 0.4844,-1.3125 1.5625,-2.5782 1.0782,-1.2656 3.1094,-2.9218 3.1406,-2.5938 4.25,-4.1016 1.1094,-1.5078 1.1094,-2.8516 0,-1.4062 -1.0078,-2.375 -1.0078,-0.9687 -2.6328,-0.9687 -1.7032,0 -2.7344,1.0234 -1.0313,1.0235 -1.0469,2.8516 l -2.4375,-0.25 q 0.25,-2.7344 1.8828,-4.1641 1.6328,-1.4296 4.3985,-1.4296 2.7812,0 4.3984,1.539 1.6172,1.5391 1.6172,3.8203 0,1.1719 -0.4766,2.2891 -0.4765,1.1172 -1.5703,2.3594 -1.0937,1.2422 -3.6562,3.3984 -2.1407,1.7969 -2.7422,2.4375 -0.6016,0.6406 -1.0078,1.2813 z"
       id="path169" />
  </g>
  <g
     transform="translate(135.3333,595.7778)"
     style="font-size:26.6667px;font-family:SansSerif;color-interpolation:linearRGB;fill:#262626;stroke:#262626;color-rendering:optimizeQuality;image-rendering:optimizeQuality;text-rendering:geometricPrecision"
     id="g175">
    <path
       style="stroke:none"
       d="m -36.875,0.9688 q 0,-3.4219 0.7031,-5.5157 0.7031,-2.0937 2.0938,-3.2265 1.3906,-1.1328 3.5,-1.1328 1.5625,0 2.7343,0.625 1.1719,0.625 1.9376,1.8046 0.7656,1.1797 1.1953,2.875 0.4297,1.6954 0.4297,4.5704 0,3.4062 -0.6954,5.4921 -0.6953,2.086 -2.0859,3.2266 -1.3906,1.1406 -3.5156,1.1406 -2.7969,0 -4.3907,-2 -1.9062,-2.4219 -1.9062,-7.8593 z m 2.4375,0 q 0,4.7656 1.1094,6.3359 1.1093,1.5703 2.75,1.5703 1.6406,0 2.75,-1.5781 1.1093,-1.5781 1.1093,-6.3281 0,-4.7657 -1.1093,-6.336 -1.1094,-1.5703 -2.7813,-1.5703 -1.625,0 -2.6094,1.375 -1.2187,1.7656 -1.2187,6.5313 z M -20.7219,10.5 V 7.7969 h 2.7031 V 10.5 Z m 13.6872,0 V 5.875 h -8.3907 V 3.7031 l 8.8125,-12.5312 h 1.9375 V 3.7031 h 2.625 V 5.875 h -2.625 V 10.5 Z m 0,-6.7969 v -8.7187 l -6.0625,8.7187 z"
       id="path173" />
  </g>
  <g
     transform="translate(135.3333,519.6667)"
     style="font-size:26.6667px;font-family:SansSerif;color-interpolation:linearRGB;fill:#262626;stroke:#262626;color-rendering:optimizeQuality;image-rendering:optimizeQuality;text-rendering:geometricPrecision"
     id="g179">
    <path
       style="stroke:none"
       d="m -36.875,0.9688 q 0,-3.4219 0.7031,-5.5157 0.7031,-2.0937 2.0938,-3.2265 1.3906,-1.1328 3.5,-1.1328 1.5625,0 2.7343,0.625 1.1719,0.625 1.9376,1.8046 0.7656,1.1797 1.1953,2.875 0.4297,1.6954 0.4297,4.5704 0,3.4062 -0.6954,5.4921 -0.6953,2.086 -2.0859,3.2266 -1.3906,1.1406 -3.5156,1.1406 -2.7969,0 -4.3907,-2 -1.9062,-2.4219 -1.9062,-7.8593 z m 2.4375,0 q 0,4.7656 1.1094,6.3359 1.1093,1.5703 2.75,1.5703 1.6406,0 2.75,-1.5781 1.1093,-1.5781 1.1093,-6.3281 0,-4.7657 -1.1093,-6.336 -1.1094,-1.5703 -2.7813,-1.5703 -1.625,0 -2.6094,1.375 -1.2187,1.7656 -1.2187,6.5313 z M -20.7219,10.5 V 7.7969 h 2.7031 V 10.5 Z M -2.3316,-4.0938 -4.691,-3.9062 q -0.3125,-1.4063 -0.9062,-2.0313 -0.9532,-1.0156 -2.3594,-1.0156 -1.1406,0 -2,0.625 -1.125,0.8281 -1.7656,2.3906 -0.6407,1.5625 -0.6719,4.4687 0.8594,-1.2968 2.0937,-1.9296 1.2344,-0.6328 2.5938,-0.6328 2.375,0 4.0469,1.7421 1.6718,1.7422 1.6718,4.5079 0,1.8281 -0.789,3.3906 Q -3.566,9.1719 -4.9332,10 q -1.3672,0.8281 -3.1172,0.8281 -2.9531,0 -4.8281,-2.1797 -1.875,-2.1796 -1.875,-7.1953 0,-5.5937 2.0625,-8.1406 1.8125,-2.2187 4.875,-2.2187 2.2813,0 3.7344,1.2812 1.4531,1.2812 1.75,3.5312 z m -9.6875,8.3282 q 0,1.2344 0.5156,2.3515 0.5156,1.1172 1.4531,1.7032 0.9375,0.5859 1.9688,0.5859 1.5,0 2.5781,-1.2109 1.0781,-1.211 1.0781,-3.2891 0,-2.0156 -1.0625,-3.1641 -1.0625,-1.1484 -2.6875,-1.1484 -1.6093,0 -2.7265,1.1484 -1.1172,1.1485 -1.1172,3.0235 z"
       id="path177" />
  </g>
  <g
     transform="translate(135.3333,443.5555)"
     style="font-size:26.6667px;font-family:SansSerif;color-interpolation:linearRGB;fill:#262626;stroke:#262626;color-rendering:optimizeQuality;image-rendering:optimizeQuality;text-rendering:geometricPrecision"
     id="g183">
    <path
       style="stroke:none"
       d="m -36.875,0.9688 q 0,-3.4219 0.7031,-5.5157 0.7031,-2.0937 2.0938,-3.2265 1.3906,-1.1328 3.5,-1.1328 1.5625,0 2.7343,0.625 1.1719,0.625 1.9376,1.8046 0.7656,1.1797 1.1953,2.875 0.4297,1.6954 0.4297,4.5704 0,3.4062 -0.6954,5.4921 -0.6953,2.086 -2.0859,3.2266 -1.3906,1.1406 -3.5156,1.1406 -2.7969,0 -4.3907,-2 -1.9062,-2.4219 -1.9062,-7.8593 z m 2.4375,0 q 0,4.7656 1.1094,6.3359 1.1093,1.5703 2.75,1.5703 1.6406,0 2.75,-1.5781 1.1093,-1.5781 1.1093,-6.3281 0,-4.7657 -1.1093,-6.336 -1.1094,-1.5703 -2.7813,-1.5703 -1.625,0 -2.6094,1.375 -1.2187,1.7656 -1.2187,6.5313 z M -20.7219,10.5 V 7.7969 h 2.7031 V 10.5 Z m 9.7184,-10.4844 q -1.4687,-0.5312 -2.1797,-1.539 -0.7109,-1.0078 -0.7109,-2.3985 0,-2.1093 1.5156,-3.5469 1.5156,-1.4374 4.0313,-1.4374 2.5312,0 4.0703,1.4687 1.539,1.4687 1.539,3.5781 0,1.3438 -0.7031,2.3438 -0.7031,1 -2.1406,1.5312 1.7812,0.5782 2.7109,1.875 0.9297,1.2969 0.9297,3.0782 0,2.4843 -1.75,4.1718 -1.75,1.6875 -4.6094,1.6875 -2.875,0 -4.625,-1.6953 -1.75,-1.6953 -1.75,-4.2266 0,-1.875 0.9532,-3.1484 0.9531,-1.2734 2.7187,-1.7422 z M -11.4722,-4 q 0,1.375 0.8828,2.2422 0.8828,0.8672 2.289,0.8672 1.375,0 2.25,-0.8672 0.875,-0.8672 0.875,-2.1172 0,-1.2969 -0.8984,-2.1875 -0.8984,-0.8906 -2.2422,-0.8906 -1.3594,0 -2.2578,0.8672 -0.8984,0.8671 -0.8984,2.0859 z m -0.7657,8.9219 q 0,1.0156 0.4844,1.9687 0.4844,0.9532 1.4297,1.4688 0.9453,0.5156 2.0391,0.5156 1.7031,0 2.8125,-1.0938 Q -4.3629,6.6875 -4.3629,5 q 0,-1.7188 -1.1406,-2.8359 -1.1406,-1.1172 -2.8594,-1.1172 -1.6718,0 -2.7734,1.1093 -1.1016,1.1094 -1.1016,2.7657 z"
       id="path181" />
  </g>
  <g
     transform="translate(135.3333,367.4445)"
     style="font-size:26.6667px;font-family:SansSerif;color-interpolation:linearRGB;fill:#262626;stroke:#262626;color-rendering:optimizeQuality;image-rendering:optimizeQuality;text-rendering:geometricPrecision"
     id="g187">
    <path
       style="stroke:none"
       d="m -4.9375,10.5 h -2.375 V -4.625 q -0.8594,0.8281 -2.25,1.6406 -1.3906,0.8125 -2.5,1.2188 v -2.2969 q 2,-0.9219 3.4844,-2.2578 1.4843,-1.3359 2.1093,-2.5859 h 1.5313 z"
       id="path185" />
  </g>
  <g
     transform="translate(135.3333,291.3333)"
     style="font-size:26.6667px;font-family:SansSerif;color-interpolation:linearRGB;fill:#262626;stroke:#262626;color-rendering:optimizeQuality;image-rendering:optimizeQuality;text-rendering:geometricPrecision"
     id="g191">
    <path
       style="stroke:none"
       d="m -27.9375,10.5 h -2.375 V -4.625 q -0.8594,0.8281 -2.25,1.6406 -1.3906,0.8125 -2.5,1.2188 v -2.2969 q 2,-0.9219 3.4844,-2.2578 1.4843,-1.3359 2.1093,-2.5859 h 1.5313 z m 7.2156,0 V 7.7969 h 2.7031 V 10.5 Z M -2.1754,8.2188 V 10.5 h -12.7812 q -0.0156,-0.8594 0.2812,-1.6406 0.4844,-1.3125 1.5625,-2.5782 1.0782,-1.2656 3.1094,-2.9218 3.1406,-2.5938 4.25,-4.1016 1.1094,-1.5078 1.1094,-2.8516 0,-1.4062 -1.0078,-2.375 -1.0078,-0.9687 -2.6328,-0.9687 -1.7032,0 -2.7344,1.0234 -1.0313,1.0235 -1.0469,2.8516 l -2.4375,-0.25 q 0.25,-2.7344 1.8828,-4.1641 1.6328,-1.4296 4.3985,-1.4296 2.7812,0 4.3984,1.539 1.6172,1.5391 1.6172,3.8203 0,1.1719 -0.4766,2.2891 -0.4765,1.1172 -1.5703,2.3594 -1.0937,1.2422 -3.6562,3.3984 -2.1407,1.7969 -2.7422,2.4375 -0.6016,0.6406 -1.0078,1.2813 z"
       id="path189" />
  </g>
  <g
     transform="translate(135.3333,215.2222)"
     style="font-size:26.6667px;font-family:SansSerif;color-interpolation:linearRGB;fill:#262626;stroke:#262626;color-rendering:optimizeQuality;image-rendering:optimizeQuality;text-rendering:geometricPrecision"
     id="g195">
    <path
       style="stroke:none"
       d="m -27.9375,10.5 h -2.375 V -4.625 q -0.8594,0.8281 -2.25,1.6406 -1.3906,0.8125 -2.5,1.2188 v -2.2969 q 2,-0.9219 3.4844,-2.2578 1.4843,-1.3359 2.1093,-2.5859 h 1.5313 z m 7.2156,0 V 7.7969 h 2.7031 V 10.5 Z m 13.6872,0 V 5.875 h -8.3907 V 3.7031 l 8.8125,-12.5312 h 1.9375 V 3.7031 h 2.625 V 5.875 h -2.625 V 10.5 Z m 0,-6.7969 v -8.7187 l -6.0625,8.7187 z"
       id="path193" />
  </g>
  <g
     transform="translate(135.3333,139.1111)"
     style="font-size:26.6667px;font-family:SansSerif;color-interpolation:linearRGB;fill:#262626;stroke:#262626;color-rendering:optimizeQuality;image-rendering:optimizeQuality;text-rendering:geometricPrecision"
     id="g199">
    <path
       style="stroke:none"
       d="m -27.9375,10.5 h -2.375 V -4.625 q -0.8594,0.8281 -2.25,1.6406 -1.3906,0.8125 -2.5,1.2188 v -2.2969 q 2,-0.9219 3.4844,-2.2578 1.4843,-1.3359 2.1093,-2.5859 h 1.5313 z m 7.2156,0 V 7.7969 h 2.7031 V 10.5 Z M -2.3316,-4.0938 -4.691,-3.9062 q -0.3125,-1.4063 -0.9062,-2.0313 -0.9532,-1.0156 -2.3594,-1.0156 -1.1406,0 -2,0.625 -1.125,0.8281 -1.7656,2.3906 -0.6407,1.5625 -0.6719,4.4687 0.8594,-1.2968 2.0937,-1.9296 1.2344,-0.6328 2.5938,-0.6328 2.375,0 4.0469,1.7421 1.6718,1.7422 1.6718,4.5079 0,1.8281 -0.789,3.3906 Q -3.566,9.1719 -4.9332,10 q -1.3672,0.8281 -3.1172,0.8281 -2.9531,0 -4.8281,-2.1797 -1.875,-2.1796 -1.875,-7.1953 0,-5.5937 2.0625,-8.1406 1.8125,-2.2187 4.875,-2.2187 2.2813,0 3.7344,1.2812 1.4531,1.2812 1.75,3.5312 z m -9.6875,8.3282 q 0,1.2344 0.5156,2.3515 0.5156,1.1172 1.4531,1.7032 0.9375,0.5859 1.9688,0.5859 1.5,0 2.5781,-1.2109 1.0781,-1.211 1.0781,-3.2891 0,-2.0156 -1.0625,-3.1641 -1.0625,-1.1484 -2.6875,-1.1484 -1.6093,0 -2.7265,1.1484 -1.1172,1.1485 -1.1172,3.0235 z"
       id="path197" />
  </g>
  <g
     transform="translate(135.3333,63)"
     style="font-size:26.6667px;font-family:SansSerif;color-interpolation:linearRGB;fill:#262626;stroke:#262626;color-rendering:optimizeQuality;image-rendering:optimizeQuality;text-rendering:geometricPrecision"
     id="g203">
    <path
       style="stroke:none"
       d="m -27.9375,10.5 h -2.375 V -4.625 q -0.8594,0.8281 -2.25,1.6406 -1.3906,0.8125 -2.5,1.2188 v -2.2969 q 2,-0.9219 3.4844,-2.2578 1.4843,-1.3359 2.1093,-2.5859 h 1.5313 z m 7.2156,0 V 7.7969 h 2.7031 V 10.5 Z m 9.7184,-10.4844 q -1.4687,-0.5312 -2.1797,-1.539 -0.7109,-1.0078 -0.7109,-2.3985 0,-2.1093 1.5156,-3.5469 1.5156,-1.4374 4.0313,-1.4374 2.5312,0 4.0703,1.4687 1.539,1.4687 1.539,3.5781 0,1.3438 -0.7031,2.3438 -0.7031,1 -2.1406,1.5312 1.7812,0.5782 2.7109,1.875 0.9297,1.2969 0.9297,3.0782 0,2.4843 -1.75,4.1718 -1.75,1.6875 -4.6094,1.6875 -2.875,0 -4.625,-1.6953 -1.75,-1.6953 -1.75,-4.2266 0,-1.875 0.9532,-3.1484 0.9531,-1.2734 2.7187,-1.7422 z M -11.4722,-4 q 0,1.375 0.8828,2.2422 0.8828,0.8672 2.289,0.8672 1.375,0 2.25,-0.8672 0.875,-0.8672 0.875,-2.1172 0,-1.2969 -0.8984,-2.1875 -0.8984,-0.8906 -2.2422,-0.8906 -1.3594,0 -2.2578,0.8672 -0.8984,0.8671 -0.8984,2.0859 z m -0.7657,8.9219 q 0,1.0156 0.4844,1.9687 0.4844,0.9532 1.4297,1.4688 0.9453,0.5156 2.0391,0.5156 1.7031,0 2.8125,-1.0938 Q -4.3629,6.6875 -4.3629,5 q 0,-1.7188 -1.1406,-2.8359 -1.1406,-1.1172 -2.8594,-1.1172 -1.6718,0 -2.7734,1.1093 -1.1016,1.1094 -1.1016,2.7657 z"
       id="path201" />
  </g>
  <g
     transform="rotate(-90,247.4165,158.0832)"
     style="font-size:29.3333px;font-family:SansSerif;color-interpolation:linearRGB;fill:#262626;stroke:#262626;color-rendering:optimizeQuality;image-rendering:optimizeQuality;text-rendering:geometricPrecision"
     id="g207">
    <path
       style="stroke:none"
       d="m -40.2188,-7 v -20.7656 h 9.2032 q 2.7812,0 4.2187,0.5625 1.4375,0.5625 2.3047,1.9765 0.8672,1.4141 0.8672,3.1328 0,2.2032 -1.4297,3.7188 -1.4297,1.5156 -4.4141,1.9375 1.0938,0.5156 1.6563,1.0313 1.2031,1.0937 2.2813,2.75 L -21.9219,-7 h -3.4531 l -2.75,-4.3125 q -1.2031,-1.875 -1.9844,-2.8672 -0.7812,-0.9922 -1.3984,-1.3906 -0.6172,-0.3985 -1.2422,-0.5547 -0.4688,-0.0938 -1.5312,-0.0938 h -3.1876 V -7 Z m 2.75,-11.5938 h 5.9063 q 1.875,0 2.9375,-0.3906 1.0625,-0.3906 1.6172,-1.25 0.5547,-0.8594 0.5547,-1.8594 0,-1.4687 -1.0703,-2.4218 -1.0704,-0.9532 -3.3828,-0.9532 h -6.5626 z M -19.1752,-7 v -20.7656 h 4.125 l 4.9219,14.7031 q 0.6718,2.0625 0.9843,3.0781 0.3594,-1.1406 1.1094,-3.3281 l 4.9688,-14.4531 H 0.6373 V -7 H -2.019 V -24.375 L -8.0502,-7 h -2.4844 l -6,-17.6719 V -7 Z m 23.5582,-6.6719 2.5937,-0.2187 q 0.1875,1.5468 0.8594,2.5468 0.6719,1 2.0859,1.6172 1.4141,0.6172 3.1953,0.6172 1.5625,0 2.7657,-0.4687 1.2031,-0.4688 1.7968,-1.2813 0.5938,-0.8125 0.5938,-1.7812 0,-0.9688 -0.5703,-1.7032 -0.5703,-0.7343 -1.8672,-1.2187 -0.8438,-0.3281 -3.7031,-1.0156 -2.8594,-0.6875 -4,-1.2969 -1.5,-0.7812 -2.2266,-1.9375 -0.7266,-1.1563 -0.7266,-2.5781 0,-1.5782 0.8907,-2.9453 0.8906,-1.3672 2.6093,-2.0703 1.7188,-0.7032 3.8125,-0.7032 2.2969,0 4.0625,0.7422 1.7657,0.7422 2.7188,2.1875 0.9531,1.4453 1.0156,3.2735 l -2.625,0.1874 q -0.2187,-1.9687 -1.4453,-2.9687 -1.2266,-1 -3.6172,-1 -2.4844,0 -3.625,0.9141 -1.1406,0.914 -1.1406,2.1953 0,1.125 0.7969,1.8437 0.7968,0.7188 4.1484,1.4766 3.3516,0.7578 4.5859,1.3203 1.8125,0.8437 2.6797,2.125 0.8672,1.2813 0.8672,2.9531 0,1.6563 -0.9453,3.1172 -0.9453,1.461 -2.7266,2.2813 -1.7812,0.8203 -4,0.8203 -2.8281,0 -4.7265,-0.8203 Q 6.6173,-8.2812 5.5314,-9.9375 4.4455,-11.5938 4.383,-13.6719 Z M 24.9342,-7 v -20.7656 h 15 v 2.4531 h -12.25 v 6.3594 h 11.4843 v 2.4375 H 27.6842 v 7.0625 H 40.4185 V -7 Z"
       id="path205" />
  </g>
  <g
     style="color-interpolation:sRGB;fill:#ffffff;stroke:#ffffff;color-rendering:optimizeSpeed;image-rendering:optimizeSpeed;shape-rendering:crispEdges;text-rendering:optimizeSpeed"
     id="g211">
    <path
       style="stroke:none"
       d="M 480,219 V 84 H 167 v 135 z"
       id="path209" />
  </g>
  <g
     transform="translate(261,103.5)"
     style="font-size:24px;font-family:SansSerif;color-interpolation:linearRGB;color-rendering:optimizeQuality;image-rendering:optimizeQuality;text-rendering:geometricPrecision"
     id="g215">
    <path
       style="stroke:none"
       d="M 1.8906,9.5 V -7.6875 H 9.5 q 2.2969,0 3.4922,0.4687 1.1953,0.4688 1.914,1.6407 0.7188,1.1719 0.7188,2.5781 0,1.8281 -1.1875,3.0859 -1.1875,1.2579 -3.6563,1.6016 0.9063,0.4219 1.375,0.8437 1,0.9219 1.8907,2.2969 L 17.0312,9.5 H 14.1719 L 11.8906,5.9219 Q 10.9062,4.375 10.2578,3.5547 9.6094,2.7344 9.1016,2.4062 8.5938,2.0781 8.0625,1.9531 7.6719,1.875 6.7969,1.875 H 4.1562 V 9.5 Z m 2.2656,-9.5938 h 4.8907 q 1.5625,0 2.4375,-0.3281 0.875,-0.3281 1.3359,-1.0312 0.4609,-0.7031 0.4609,-1.5469 0,-1.2188 -0.8828,-2 -0.8828,-0.7812 -2.8046,-0.7812 H 4.1562 Z M 19.1133,9.5 V -7.6875 h 3.4219 l 4.0625,12.1719 q 0.5625,1.7031 0.8281,2.5468 0.2969,-0.9374 0.9062,-2.7656 l 4.125,-11.9531 h 3.0469 V 9.5 H 33.3164 V -4.875 L 28.332,9.5 H 26.2695 L 21.3008,-5.125 V 9.5 Z M 38.4023,3.9844 40.543,3.7969 q 0.1562,1.2812 0.7109,2.1093 0.5547,0.8282 1.7266,1.336 1.1718,0.5078 2.6406,0.5078 1.2969,0 2.2969,-0.3828 1,-0.3828 1.4843,-1.0625 0.4844,-0.6797 0.4844,-1.4766 0,-0.7969 -0.4687,-1.4062 Q 48.9492,2.8125 47.8711,2.4062 47.1836,2.1406 44.8164,1.5703 42.4492,1 41.4961,0.5 q -1.2344,-0.6406 -1.8359,-1.6016 -0.6016,-0.9609 -0.6016,-2.1328 0,-1.3125 0.7422,-2.4375 0.7422,-1.125 2.1562,-1.7109 1.4141,-0.586 3.1485,-0.586 1.9062,0 3.3672,0.6094 1.4609,0.6094 2.25,1.8047 0.789,1.1953 0.8359,2.7109 l -2.1719,0.1719 q -0.1719,-1.6406 -1.1875,-2.4687 -1.0156,-0.8282 -3,-0.8282 -2.0625,0 -3.0078,0.7579 -0.9453,0.7578 -0.9453,1.8203 0,0.9218 0.6719,1.5156 0.6562,0.6094 3.4297,1.2344 2.7734,0.625 3.8046,1.0937 1.5,0.6875 2.211,1.75 0.7109,1.0625 0.7109,2.4375 0,1.375 -0.7812,2.586 -0.7813,1.2109 -2.25,1.8906 -1.4688,0.6797 -3.3125,0.6797 -2.3282,0 -3.9063,-0.6797 Q 40.2461,8.4375 39.3477,7.0703 38.4492,5.7031 38.4023,3.9844 Z M 55.2383,9.5 V -7.6875 h 12.4219 v 2.0313 H 57.5039 v 5.2656 h 9.5 V 1.625 h -9.5 V 7.4688 H 68.0508 V 9.5 Z M 77.6016,-5.25 v -2.4375 h 2.1093 V -5.25 Z m 0,14.75 V -2.9531 h 2.1093 V 9.5 Z m 5.3164,0 V -2.9531 h 1.9062 v 1.7812 q 1.375,-2.0625 3.9531,-2.0625 1.125,0 2.0704,0.4063 0.9453,0.4062 1.414,1.0625 0.4688,0.6562 0.6563,1.5625 0.125,0.5781 0.125,2.0469 V 9.5 H 90.9336 V 1.9219 q 0,-1.2813 -0.25,-1.9219 -0.25,-0.6406 -0.875,-1.0234 -0.625,-0.3828 -1.4688,-0.3828 -1.3437,0 -2.3281,0.8593 -0.9844,0.8594 -0.9844,3.25 V 9.5 Z m 18.6093,0 4.5469,-6.4688 -4.2031,-5.9843 h 2.6406 l 1.9063,2.9219 q 0.5468,0.8281 0.875,1.3906 Q 107.8086,0.5938 108.2305,0 l 2.1093,-2.9531 h 2.5157 l -4.2969,5.8593 4.625,6.5938 h -2.5938 L 108.043,5.625 107.3555,4.5938 104.0898,9.5 Z m 28.1524,0 V 7.9219 q -1.1875,1.8593 -3.4844,1.8593 -1.4844,0 -2.7344,-0.8203 -1.25,-0.8203 -1.9297,-2.289 -0.6796,-1.4688 -0.6796,-3.3907 0,-1.8593 0.6172,-3.375 0.6171,-1.5156 1.8593,-2.3281 1.2422,-0.8125 2.7735,-0.8125 1.125,0 2.0078,0.4766 0.8828,0.4766 1.4297,1.2422 v -6.1719 h 2.0937 V 9.5 Z m -6.6719,-6.2188 q 0,2.3907 1.0078,3.5782 1.0078,1.1875 2.3828,1.1875 1.3907,0 2.3516,-1.1328 0.9609,-1.1329 0.9609,-3.4453 0,-2.5626 -0.9843,-3.7579 -0.9844,-1.1953 -2.4219,-1.1953 -1.4063,0 -2.3516,1.1485 -0.9453,1.1484 -0.9453,3.6171 z m 11.957,-8.5312 v -2.4375 h 2.1094 V -5.25 Z m 0,14.75 V -2.9531 h 2.1094 V 9.5 Z m 5.3008,0 V -2.9531 h 1.8906 v 1.8906 q 0.7344,-1.3281 1.3516,-1.75 0.6172,-0.4219 1.3516,-0.4219 1.0625,0 2.1718,0.6875 l -0.7343,1.9531 q -0.7657,-0.4531 -1.5469,-0.4531 -0.6875,0 -1.2422,0.4141 -0.5547,0.414 -0.789,1.1484 -0.3438,1.125 -0.3438,2.4688 V 9.5 Z m 16.5391,-4.0156 2.1719,0.2812 q -0.5157,1.9063 -1.9063,2.961 -1.3906,1.0546 -3.5625,1.0546 -2.7344,0 -4.3359,-1.6796 -1.6016,-1.6797 -1.6016,-4.7266 0,-3.1406 1.6172,-4.875 1.6172,-1.7344 4.1953,-1.7344 2.5,0 4.086,1.7032 1.5859,1.7031 1.5859,4.7812 0,0.1875 -0.0156,0.5625 h -9.2813 q 0.1094,2.0469 1.1563,3.1406 1.0468,1.0938 2.6093,1.0938 1.1563,0 1.9766,-0.6094 0.8203,-0.6094 1.3047,-1.9531 z m -6.9375,-3.4063 h 6.9531 q -0.1406,-1.5625 -0.7969,-2.3593 -1,-1.2188 -2.6093,-1.2188 -1.4532,0 -2.4453,0.9766 -0.9922,0.9765 -1.1016,2.6015 z m 19.8789,2.8594 2.0781,0.2656 q -0.3437,2.1563 -1.7422,3.3672 -1.3984,1.2109 -3.4453,1.2109 -2.5469,0 -4.1015,-1.6718 -1.5547,-1.6719 -1.5547,-4.7813 0,-2.0156 0.6718,-3.5312 0.6719,-1.5157 2.0313,-2.2735 1.3594,-0.7578 2.9687,-0.7578 2.0313,0 3.3204,1.0313 1.289,1.0312 1.6484,2.9062 l -2.0469,0.3281 q -0.2969,-1.2656 -1.039,-1.8984 Q 167.793,-1.5 166.7305,-1.5 q -1.5938,0 -2.586,1.1484 -0.9922,1.1485 -0.9922,3.6172 0,2.5 0.961,3.6406 0.9609,1.1407 2.5078,1.1407 1.2344,0 2.0703,-0.7657 0.8359,-0.7656 1.0547,-2.3437 z m 8.4844,2.6719 0.3125,1.8594 q -0.8907,0.2031 -1.5938,0.2031 -1.1562,0 -1.789,-0.3672 -0.6329,-0.3672 -0.8907,-0.9609 -0.2578,-0.5938 -0.2578,-2.4844 v -7.1719 h -1.5469 v -1.6406 h 1.5469 v -3.0781 l 2.0938,-1.2657 v 4.3438 h 2.125 v 1.6406 h -2.125 v 7.2813 q 0,0.9062 0.1172,1.164 0.1171,0.2578 0.3671,0.4063 0.25,0.1484 0.7188,0.1484 0.3437,0 0.9219,-0.0781 z M 180.3047,-5.25 v -2.4375 h 2.1094 V -5.25 Z m 0,14.75 V -2.9531 h 2.1094 V 9.5 Z m 4.5351,-6.2188 q 0,-3.4687 1.9219,-5.125 1.6094,-1.3906 3.9219,-1.3906 2.5625,0 4.1875,1.6875 1.625,1.6875 1.625,4.6407 0,2.4062 -0.7188,3.7812 -0.7187,1.375 -2.0937,2.1406 -1.375,0.7656 -3,0.7656 -2.625,0 -4.2344,-1.6796 -1.6094,-1.6797 -1.6094,-4.8204 z m 2.1719,0 q 0,2.3907 1.0391,3.5782 1.039,1.1875 2.6328,1.1875 1.5625,0 2.6094,-1.1953 1.0468,-1.1954 1.0468,-3.6485 0,-2.3125 -1.0546,-3.5 -1.0547,-1.1875 -2.6016,-1.1875 -1.5938,0 -2.6328,1.1875 -1.0391,1.1875 -1.0391,3.5781 z M 198.9688,9.5 V -2.9531 h 1.9062 v 1.7812 q 1.375,-2.0625 3.9531,-2.0625 1.125,0 2.0703,0.4063 0.9454,0.4062 1.4141,1.0625 0.4687,0.6562 0.6563,1.5625 0.125,0.5781 0.125,2.0469 V 9.5 h -2.1094 V 1.9219 q 0,-1.2813 -0.25,-1.9219 -0.25,-0.6406 -0.875,-1.0234 -0.625,-0.3828 -1.4688,-0.3828 -1.3437,0 -2.3281,0.8593 -0.9844,0.8594 -0.9844,3.25 V 9.5 Z"
       id="path213" />
  </g>
  <g
     style="color-interpolation:sRGB;fill:#0072bd;stroke:#0072bd;color-rendering:optimizeSpeed;image-rendering:optimizeSpeed;shape-rendering:crispEdges;text-rendering:optimizeSpeed"
     id="g219">
    <path
       style="stroke:none"
       d="m 255,115.125 v -23.25 h -80 v 23.25 z"
       id="path217" />
  </g>
  <g
     style="color-interpolation:linearRGB;stroke-width:1.3333;stroke-linecap:butt;color-rendering:optimizeQuality;image-rendering:optimizeQuality;text-rendering:geometricPrecision"
     id="g223">
    <path
       d="m 175,115.125 v -23.25 h 80 v 23.25 z"
       style="fill:none;fill-rule:evenodd"
       id="path221" />
  </g>
  <g
     transform="translate(261,135.5)"
     style="font-size:24px;font-family:SansSerif;color-interpolation:linearRGB;color-rendering:optimizeQuality;image-rendering:optimizeQuality;text-rendering:geometricPrecision"
     id="g227">
    <path
       style="stroke:none"
       d="M 1.8906,9.5 V -7.6875 H 9.5 q 2.2969,0 3.4922,0.4687 1.1953,0.4688 1.914,1.6407 0.7188,1.1719 0.7188,2.5781 0,1.8281 -1.1875,3.0859 -1.1875,1.2579 -3.6563,1.6016 0.9063,0.4219 1.375,0.8437 1,0.9219 1.8907,2.2969 L 17.0312,9.5 H 14.1719 L 11.8906,5.9219 Q 10.9062,4.375 10.2578,3.5547 9.6094,2.7344 9.1016,2.4062 8.5938,2.0781 8.0625,1.9531 7.6719,1.875 6.7969,1.875 H 4.1562 V 9.5 Z m 2.2656,-9.5938 h 4.8907 q 1.5625,0 2.4375,-0.3281 0.875,-0.3281 1.3359,-1.0312 0.4609,-0.7031 0.4609,-1.5469 0,-1.2188 -0.8828,-2 -0.8828,-0.7812 -2.8046,-0.7812 H 4.1562 Z M 19.1133,9.5 V -7.6875 h 3.4219 l 4.0625,12.1719 q 0.5625,1.7031 0.8281,2.5468 0.2969,-0.9374 0.9062,-2.7656 l 4.125,-11.9531 h 3.0469 V 9.5 H 33.3164 V -4.875 L 28.332,9.5 H 26.2695 L 21.3008,-5.125 V 9.5 Z M 38.4023,3.9844 40.543,3.7969 q 0.1562,1.2812 0.7109,2.1093 0.5547,0.8282 1.7266,1.336 1.1718,0.5078 2.6406,0.5078 1.2969,0 2.2969,-0.3828 1,-0.3828 1.4843,-1.0625 0.4844,-0.6797 0.4844,-1.4766 0,-0.7969 -0.4687,-1.4062 Q 48.9492,2.8125 47.8711,2.4062 47.1836,2.1406 44.8164,1.5703 42.4492,1 41.4961,0.5 q -1.2344,-0.6406 -1.8359,-1.6016 -0.6016,-0.9609 -0.6016,-2.1328 0,-1.3125 0.7422,-2.4375 0.7422,-1.125 2.1562,-1.7109 1.4141,-0.586 3.1485,-0.586 1.9062,0 3.3672,0.6094 1.4609,0.6094 2.25,1.8047 0.789,1.1953 0.8359,2.7109 l -2.1719,0.1719 q -0.1719,-1.6406 -1.1875,-2.4687 -1.0156,-0.8282 -3,-0.8282 -2.0625,0 -3.0078,0.7579 -0.9453,0.7578 -0.9453,1.8203 0,0.9218 0.6719,1.5156 0.6562,0.6094 3.4297,1.2344 2.7734,0.625 3.8046,1.0937 1.5,0.6875 2.211,1.75 0.7109,1.0625 0.7109,2.4375 0,1.375 -0.7812,2.586 -0.7813,1.2109 -2.25,1.8906 -1.4688,0.6797 -3.3125,0.6797 -2.3282,0 -3.9063,-0.6797 Q 40.2461,8.4375 39.3477,7.0703 38.4492,5.7031 38.4023,3.9844 Z M 55.2383,9.5 V -7.6875 h 12.4219 v 2.0313 H 57.5039 v 5.2656 h 9.5 V 1.625 h -9.5 V 7.4688 H 68.0508 V 9.5 Z M 77.6016,-5.25 v -2.4375 h 2.1093 V -5.25 Z m 0,14.75 V -2.9531 h 2.1093 V 9.5 Z m 5.3164,0 V -2.9531 h 1.9062 v 1.7812 q 1.375,-2.0625 3.9531,-2.0625 1.125,0 2.0704,0.4063 0.9453,0.4062 1.414,1.0625 0.4688,0.6562 0.6563,1.5625 0.125,0.5781 0.125,2.0469 V 9.5 H 90.9336 V 1.9219 q 0,-1.2813 -0.25,-1.9219 -0.25,-0.6406 -0.875,-1.0234 -0.625,-0.3828 -1.4688,-0.3828 -1.3437,0 -2.3281,0.8593 -0.9844,0.8594 -0.9844,3.25 V 9.5 Z m 19.9218,4.7969 -0.2343,-1.9844 q 0.7031,0.1875 1.2187,0.1875 0.7031,0 1.125,-0.2344 0.4219,-0.2344 0.6875,-0.6562 0.2031,-0.3125 0.6406,-1.5625 0.0625,-0.1875 0.1875,-0.5157 l -4.7187,-12.4843 h 2.2656 l 2.5938,7.2187 q 0.5,1.3594 0.9062,2.875 0.3594,-1.4531 0.8594,-2.8281 l 2.6719,-7.2656 h 2.1093 L 108.418,9.7188 q -0.7657,2.0468 -1.1875,2.8124 -0.5625,1.0469 -1.2891,1.5313 -0.7266,0.4844 -1.7422,0.4844 -0.6094,0 -1.3594,-0.25 z M 129.6797,9.5 V 7.9219 q -1.1875,1.8593 -3.4844,1.8593 -1.4844,0 -2.7344,-0.8203 -1.25,-0.8203 -1.9297,-2.289 -0.6796,-1.4688 -0.6796,-3.3907 0,-1.8593 0.6172,-3.375 0.6171,-1.5156 1.8593,-2.3281 1.2422,-0.8125 2.7735,-0.8125 1.125,0 2.0078,0.4766 0.8828,0.4766 1.4297,1.2422 v -6.1719 h 2.0937 V 9.5 Z m -6.6719,-6.2188 q 0,2.3907 1.0078,3.5782 1.0078,1.1875 2.3828,1.1875 1.3907,0 2.3516,-1.1328 0.9609,-1.1329 0.9609,-3.4453 0,-2.5626 -0.9843,-3.7579 -0.9844,-1.1953 -2.4219,-1.1953 -1.4063,0 -2.3516,1.1485 -0.9453,1.1484 -0.9453,3.6171 z m 11.957,-8.5312 v -2.4375 h 2.1094 V -5.25 Z m 0,14.75 V -2.9531 h 2.1094 V 9.5 Z m 5.3008,0 V -2.9531 h 1.8906 v 1.8906 q 0.7344,-1.3281 1.3516,-1.75 0.6172,-0.4219 1.3516,-0.4219 1.0625,0 2.1718,0.6875 l -0.7343,1.9531 q -0.7657,-0.4531 -1.5469,-0.4531 -0.6875,0 -1.2422,0.4141 -0.5547,0.414 -0.789,1.1484 -0.3438,1.125 -0.3438,2.4688 V 9.5 Z m 16.5391,-4.0156 2.1719,0.2812 q -0.5157,1.9063 -1.9063,2.961 -1.3906,1.0546 -3.5625,1.0546 -2.7344,0 -4.3359,-1.6796 -1.6016,-1.6797 -1.6016,-4.7266 0,-3.1406 1.6172,-4.875 1.6172,-1.7344 4.1953,-1.7344 2.5,0 4.086,1.7032 1.5859,1.7031 1.5859,4.7812 0,0.1875 -0.0156,0.5625 h -9.2813 q 0.1094,2.0469 1.1563,3.1406 1.0468,1.0938 2.6093,1.0938 1.1563,0 1.9766,-0.6094 0.8203,-0.6094 1.3047,-1.9531 z m -6.9375,-3.4063 h 6.9531 q -0.1406,-1.5625 -0.7969,-2.3593 -1,-1.2188 -2.6093,-1.2188 -1.4532,0 -2.4453,0.9766 -0.9922,0.9765 -1.1016,2.6015 z m 19.8789,2.8594 2.0781,0.2656 q -0.3437,2.1563 -1.7422,3.3672 -1.3984,1.2109 -3.4453,1.2109 -2.5469,0 -4.1015,-1.6718 -1.5547,-1.6719 -1.5547,-4.7813 0,-2.0156 0.6718,-3.5312 0.6719,-1.5157 2.0313,-2.2735 1.3594,-0.7578 2.9687,-0.7578 2.0313,0 3.3204,1.0313 1.289,1.0312 1.6484,2.9062 l -2.0469,0.3281 q -0.2969,-1.2656 -1.039,-1.8984 Q 167.793,-1.5 166.7305,-1.5 q -1.5938,0 -2.586,1.1484 -0.9922,1.1485 -0.9922,3.6172 0,2.5 0.961,3.6406 0.9609,1.1407 2.5078,1.1407 1.2344,0 2.0703,-0.7657 0.8359,-0.7656 1.0547,-2.3437 z m 8.4844,2.6719 0.3125,1.8594 q -0.8907,0.2031 -1.5938,0.2031 -1.1562,0 -1.789,-0.3672 -0.6329,-0.3672 -0.8907,-0.9609 -0.2578,-0.5938 -0.2578,-2.4844 v -7.1719 h -1.5469 v -1.6406 h 1.5469 v -3.0781 l 2.0938,-1.2657 v 4.3438 h 2.125 v 1.6406 h -2.125 v 7.2813 q 0,0.9062 0.1172,1.164 0.1171,0.2578 0.3671,0.4063 0.25,0.1484 0.7188,0.1484 0.3437,0 0.9219,-0.0781 z M 180.3047,-5.25 v -2.4375 h 2.1094 V -5.25 Z m 0,14.75 V -2.9531 h 2.1094 V 9.5 Z m 4.5351,-6.2188 q 0,-3.4687 1.9219,-5.125 1.6094,-1.3906 3.9219,-1.3906 2.5625,0 4.1875,1.6875 1.625,1.6875 1.625,4.6407 0,2.4062 -0.7188,3.7812 -0.7187,1.375 -2.0937,2.1406 -1.375,0.7656 -3,0.7656 -2.625,0 -4.2344,-1.6796 -1.6094,-1.6797 -1.6094,-4.8204 z m 2.1719,0 q 0,2.3907 1.0391,3.5782 1.039,1.1875 2.6328,1.1875 1.5625,0 2.6094,-1.1953 1.0468,-1.1954 1.0468,-3.6485 0,-2.3125 -1.0546,-3.5 -1.0547,-1.1875 -2.6016,-1.1875 -1.5938,0 -2.6328,1.1875 -1.0391,1.1875 -1.0391,3.5781 z M 198.9688,9.5 V -2.9531 h 1.9062 v 1.7812 q 1.375,-2.0625 3.9531,-2.0625 1.125,0 2.0703,0.4063 0.9454,0.4062 1.4141,1.0625 0.4687,0.6562 0.6563,1.5625 0.125,0.5781 0.125,2.0469 V 9.5 h -2.1094 V 1.9219 q 0,-1.2813 -0.25,-1.9219 -0.25,-0.6406 -0.875,-1.0234 -0.625,-0.3828 -1.4688,-0.3828 -1.3437,0 -2.3281,0.8593 -0.9844,0.8594 -0.9844,3.25 V 9.5 Z"
       id="path225" />
  </g>
  <g
     style="color-interpolation:sRGB;fill:#d95319;stroke:#d95319;color-rendering:optimizeSpeed;image-rendering:optimizeSpeed;shape-rendering:crispEdges;text-rendering:optimizeSpeed"
     id="g231">
    <path
       style="stroke:none"
       d="m 255,147.125 v -23.25 h -80 v 23.25 z"
       id="path229" />
  </g>
  <g
     style="color-interpolation:linearRGB;stroke-width:1.3333;stroke-linecap:butt;color-rendering:optimizeQuality;image-rendering:optimizeQuality;text-rendering:geometricPrecision"
     id="g235">
    <path
       d="m 175,147.125 v -23.25 h 80 v 23.25 z"
       style="fill:none;fill-rule:evenodd"
       id="path233" />
  </g>
  <g
     transform="translate(261,167.5)"
     style="font-size:24px;font-family:SansSerif;color-interpolation:linearRGB;color-rendering:optimizeQuality;image-rendering:optimizeQuality;text-rendering:geometricPrecision"
     id="g239">
    <path
       style="stroke:none"
       d="M 1.8906,9.5 V -7.6875 H 9.5 q 2.2969,0 3.4922,0.4687 1.1953,0.4688 1.914,1.6407 0.7188,1.1719 0.7188,2.5781 0,1.8281 -1.1875,3.0859 -1.1875,1.2579 -3.6563,1.6016 0.9063,0.4219 1.375,0.8437 1,0.9219 1.8907,2.2969 L 17.0312,9.5 H 14.1719 L 11.8906,5.9219 Q 10.9062,4.375 10.2578,3.5547 9.6094,2.7344 9.1016,2.4062 8.5938,2.0781 8.0625,1.9531 7.6719,1.875 6.7969,1.875 H 4.1562 V 9.5 Z m 2.2656,-9.5938 h 4.8907 q 1.5625,0 2.4375,-0.3281 0.875,-0.3281 1.3359,-1.0312 0.4609,-0.7031 0.4609,-1.5469 0,-1.2188 -0.8828,-2 -0.8828,-0.7812 -2.8046,-0.7812 H 4.1562 Z M 19.1133,9.5 V -7.6875 h 3.4219 l 4.0625,12.1719 q 0.5625,1.7031 0.8281,2.5468 0.2969,-0.9374 0.9062,-2.7656 l 4.125,-11.9531 h 3.0469 V 9.5 H 33.3164 V -4.875 L 28.332,9.5 H 26.2695 L 21.3008,-5.125 V 9.5 Z M 38.4023,3.9844 40.543,3.7969 q 0.1562,1.2812 0.7109,2.1093 0.5547,0.8282 1.7266,1.336 1.1718,0.5078 2.6406,0.5078 1.2969,0 2.2969,-0.3828 1,-0.3828 1.4843,-1.0625 0.4844,-0.6797 0.4844,-1.4766 0,-0.7969 -0.4687,-1.4062 Q 48.9492,2.8125 47.8711,2.4062 47.1836,2.1406 44.8164,1.5703 42.4492,1 41.4961,0.5 q -1.2344,-0.6406 -1.8359,-1.6016 -0.6016,-0.9609 -0.6016,-2.1328 0,-1.3125 0.7422,-2.4375 0.7422,-1.125 2.1562,-1.7109 1.4141,-0.586 3.1485,-0.586 1.9062,0 3.3672,0.6094 1.4609,0.6094 2.25,1.8047 0.789,1.1953 0.8359,2.7109 l -2.1719,0.1719 q -0.1719,-1.6406 -1.1875,-2.4687 -1.0156,-0.8282 -3,-0.8282 -2.0625,0 -3.0078,0.7579 -0.9453,0.7578 -0.9453,1.8203 0,0.9218 0.6719,1.5156 0.6562,0.6094 3.4297,1.2344 2.7734,0.625 3.8046,1.0937 1.5,0.6875 2.211,1.75 0.7109,1.0625 0.7109,2.4375 0,1.375 -0.7812,2.586 -0.7813,1.2109 -2.25,1.8906 -1.4688,0.6797 -3.3125,0.6797 -2.3282,0 -3.9063,-0.6797 Q 40.2461,8.4375 39.3477,7.0703 38.4492,5.7031 38.4023,3.9844 Z M 55.2383,9.5 V -7.6875 h 12.4219 v 2.0313 H 57.5039 v 5.2656 h 9.5 V 1.625 h -9.5 V 7.4688 H 68.0508 V 9.5 Z M 77.6016,-5.25 v -2.4375 h 2.1093 V -5.25 Z m 0,14.75 V -2.9531 h 2.1093 V 9.5 Z m 5.3164,0 V -2.9531 h 1.9062 v 1.7812 q 1.375,-2.0625 3.9531,-2.0625 1.125,0 2.0704,0.4063 0.9453,0.4062 1.414,1.0625 0.4688,0.6562 0.6563,1.5625 0.125,0.5781 0.125,2.0469 V 9.5 H 90.9336 V 1.9219 q 0,-1.2813 -0.25,-1.9219 -0.25,-0.6406 -0.875,-1.0234 -0.625,-0.3828 -1.4688,-0.3828 -1.3437,0 -2.3281,0.8593 -0.9844,0.8594 -0.9844,3.25 V 9.5 Z m 18.9062,0 V 7.7812 l 7.9219,-9.0937 q -1.3438,0.0781 -2.375,0.0781 h -5.0781 v -1.7187 h 10.1718 v 1.4062 l -6.7343,7.8907 -1.2969,1.4374 q 1.4062,-0.0937 2.6562,-0.0937 h 5.75 V 9.5 Z m 27.8555,0 V 7.9219 q -1.1875,1.8593 -3.4844,1.8593 -1.4844,0 -2.7344,-0.8203 -1.25,-0.8203 -1.9297,-2.289 -0.6796,-1.4688 -0.6796,-3.3907 0,-1.8593 0.6172,-3.375 0.6171,-1.5156 1.8593,-2.3281 1.2422,-0.8125 2.7735,-0.8125 1.125,0 2.0078,0.4766 0.8828,0.4766 1.4297,1.2422 v -6.1719 h 2.0937 V 9.5 Z m -6.6719,-6.2188 q 0,2.3907 1.0078,3.5782 1.0078,1.1875 2.3828,1.1875 1.3907,0 2.3516,-1.1328 0.9609,-1.1329 0.9609,-3.4453 0,-2.5626 -0.9843,-3.7579 -0.9844,-1.1953 -2.4219,-1.1953 -1.4063,0 -2.3516,1.1485 -0.9453,1.1484 -0.9453,3.6171 z m 11.957,-8.5312 v -2.4375 h 2.1094 V -5.25 Z m 0,14.75 V -2.9531 h 2.1094 V 9.5 Z m 5.3008,0 V -2.9531 h 1.8906 v 1.8906 q 0.7344,-1.3281 1.3516,-1.75 0.6172,-0.4219 1.3516,-0.4219 1.0625,0 2.1718,0.6875 l -0.7343,1.9531 q -0.7657,-0.4531 -1.5469,-0.4531 -0.6875,0 -1.2422,0.4141 -0.5547,0.414 -0.789,1.1484 -0.3438,1.125 -0.3438,2.4688 V 9.5 Z m 16.5391,-4.0156 2.1719,0.2812 q -0.5157,1.9063 -1.9063,2.961 -1.3906,1.0546 -3.5625,1.0546 -2.7344,0 -4.3359,-1.6796 -1.6016,-1.6797 -1.6016,-4.7266 0,-3.1406 1.6172,-4.875 1.6172,-1.7344 4.1953,-1.7344 2.5,0 4.086,1.7032 1.5859,1.7031 1.5859,4.7812 0,0.1875 -0.0156,0.5625 h -9.2813 q 0.1094,2.0469 1.1563,3.1406 1.0468,1.0938 2.6093,1.0938 1.1563,0 1.9766,-0.6094 0.8203,-0.6094 1.3047,-1.9531 z m -6.9375,-3.4063 h 6.9531 q -0.1406,-1.5625 -0.7969,-2.3593 -1,-1.2188 -2.6093,-1.2188 -1.4532,0 -2.4453,0.9766 -0.9922,0.9765 -1.1016,2.6015 z m 19.8789,2.8594 2.0781,0.2656 q -0.3437,2.1563 -1.7422,3.3672 -1.3984,1.2109 -3.4453,1.2109 -2.5469,0 -4.1015,-1.6718 -1.5547,-1.6719 -1.5547,-4.7813 0,-2.0156 0.6718,-3.5312 0.6719,-1.5157 2.0313,-2.2735 1.3594,-0.7578 2.9687,-0.7578 2.0313,0 3.3204,1.0313 1.289,1.0312 1.6484,2.9062 l -2.0469,0.3281 q -0.2969,-1.2656 -1.039,-1.8984 Q 167.793,-1.5 166.7305,-1.5 q -1.5938,0 -2.586,1.1484 -0.9922,1.1485 -0.9922,3.6172 0,2.5 0.961,3.6406 0.9609,1.1407 2.5078,1.1407 1.2344,0 2.0703,-0.7657 0.8359,-0.7656 1.0547,-2.3437 z m 8.4844,2.6719 0.3125,1.8594 q -0.8907,0.2031 -1.5938,0.2031 -1.1562,0 -1.789,-0.3672 -0.6329,-0.3672 -0.8907,-0.9609 -0.2578,-0.5938 -0.2578,-2.4844 v -7.1719 h -1.5469 v -1.6406 h 1.5469 v -3.0781 l 2.0938,-1.2657 v 4.3438 h 2.125 v 1.6406 h -2.125 v 7.2813 q 0,0.9062 0.1172,1.164 0.1171,0.2578 0.3671,0.4063 0.25,0.1484 0.7188,0.1484 0.3437,0 0.9219,-0.0781 z M 180.3047,-5.25 v -2.4375 h 2.1094 V -5.25 Z m 0,14.75 V -2.9531 h 2.1094 V 9.5 Z m 4.5351,-6.2188 q 0,-3.4687 1.9219,-5.125 1.6094,-1.3906 3.9219,-1.3906 2.5625,0 4.1875,1.6875 1.625,1.6875 1.625,4.6407 0,2.4062 -0.7188,3.7812 -0.7187,1.375 -2.0937,2.1406 -1.375,0.7656 -3,0.7656 -2.625,0 -4.2344,-1.6796 -1.6094,-1.6797 -1.6094,-4.8204 z m 2.1719,0 q 0,2.3907 1.0391,3.5782 1.039,1.1875 2.6328,1.1875 1.5625,0 2.6094,-1.1953 1.0468,-1.1954 1.0468,-3.6485 0,-2.3125 -1.0546,-3.5 -1.0547,-1.1875 -2.6016,-1.1875 -1.5938,0 -2.6328,1.1875 -1.0391,1.1875 -1.0391,3.5781 z M 198.9688,9.5 V -2.9531 h 1.9062 v 1.7812 q 1.375,-2.0625 3.9531,-2.0625 1.125,0 2.0703,0.4063 0.9454,0.4062 1.4141,1.0625 0.4687,0.6562 0.6563,1.5625 0.125,0.5781 0.125,2.0469 V 9.5 h -2.1094 V 1.9219 q 0,-1.2813 -0.25,-1.9219 -0.25,-0.6406 -0.875,-1.0234 -0.625,-0.3828 -1.4688,-0.3828 -1.3437,0 -2.3281,0.8593 -0.9844,0.8594 -0.9844,3.25 V 9.5 Z"
       id="path237" />
  </g>
  <g
     style="color-interpolation:sRGB;fill:#edb120;stroke:#edb120;color-rendering:optimizeSpeed;image-rendering:optimizeSpeed;shape-rendering:crispEdges;text-rendering:optimizeSpeed"
     id="g243">
    <path
       style="stroke:none"
       d="m 255,179.125 v -23.25 h -80 v 23.25 z"
       id="path241" />
  </g>
  <g
     style="color-interpolation:linearRGB;stroke-width:1.3333;stroke-linecap:butt;color-rendering:optimizeQuality;image-rendering:optimizeQuality;text-rendering:geometricPrecision"
     id="g247">
    <path
       d="m 175,179.125 v -23.25 h 80 v 23.25 z"
       style="fill:none;fill-rule:evenodd"
       id="path245" />
  </g>
  <g
     transform="translate(261,199.5)"
     style="font-size:24px;font-family:SansSerif;color-interpolation:linearRGB;color-rendering:optimizeQuality;image-rendering:optimizeQuality;text-rendering:geometricPrecision"
     id="g251">
    <path
       style="stroke:none"
       d="M 1.8906,9.5 V -7.6875 H 9.5 q 2.2969,0 3.4922,0.4687 1.1953,0.4688 1.914,1.6407 0.7188,1.1719 0.7188,2.5781 0,1.8281 -1.1875,3.0859 -1.1875,1.2579 -3.6563,1.6016 0.9063,0.4219 1.375,0.8437 1,0.9219 1.8907,2.2969 L 17.0312,9.5 H 14.1719 L 11.8906,5.9219 Q 10.9062,4.375 10.2578,3.5547 9.6094,2.7344 9.1016,2.4062 8.5938,2.0781 8.0625,1.9531 7.6719,1.875 6.7969,1.875 H 4.1562 V 9.5 Z m 2.2656,-9.5938 h 4.8907 q 1.5625,0 2.4375,-0.3281 0.875,-0.3281 1.3359,-1.0312 0.4609,-0.7031 0.4609,-1.5469 0,-1.2188 -0.8828,-2 -0.8828,-0.7812 -2.8046,-0.7812 H 4.1562 Z M 19.1133,9.5 V -7.6875 h 3.4219 l 4.0625,12.1719 q 0.5625,1.7031 0.8281,2.5468 0.2969,-0.9374 0.9062,-2.7656 l 4.125,-11.9531 h 3.0469 V 9.5 H 33.3164 V -4.875 L 28.332,9.5 H 26.2695 L 21.3008,-5.125 V 9.5 Z M 38.4023,3.9844 40.543,3.7969 q 0.1562,1.2812 0.7109,2.1093 0.5547,0.8282 1.7266,1.336 1.1718,0.5078 2.6406,0.5078 1.2969,0 2.2969,-0.3828 1,-0.3828 1.4843,-1.0625 0.4844,-0.6797 0.4844,-1.4766 0,-0.7969 -0.4687,-1.4062 Q 48.9492,2.8125 47.8711,2.4062 47.1836,2.1406 44.8164,1.5703 42.4492,1 41.4961,0.5 q -1.2344,-0.6406 -1.8359,-1.6016 -0.6016,-0.9609 -0.6016,-2.1328 0,-1.3125 0.7422,-2.4375 0.7422,-1.125 2.1562,-1.7109 1.4141,-0.586 3.1485,-0.586 1.9062,0 3.3672,0.6094 1.4609,0.6094 2.25,1.8047 0.789,1.1953 0.8359,2.7109 l -2.1719,0.1719 q -0.1719,-1.6406 -1.1875,-2.4687 -1.0156,-0.8282 -3,-0.8282 -2.0625,0 -3.0078,0.7579 -0.9453,0.7578 -0.9453,1.8203 0,0.9218 0.6719,1.5156 0.6562,0.6094 3.4297,1.2344 2.7734,0.625 3.8046,1.0937 1.5,0.6875 2.211,1.75 0.7109,1.0625 0.7109,2.4375 0,1.375 -0.7812,2.586 -0.7813,1.2109 -2.25,1.8906 -1.4688,0.6797 -3.3125,0.6797 -2.3282,0 -3.9063,-0.6797 Q 40.2461,8.4375 39.3477,7.0703 38.4492,5.7031 38.4023,3.9844 Z M 55.2383,9.5 V -7.6875 h 12.4219 v 2.0313 H 57.5039 v 5.2656 h 9.5 V 1.625 h -9.5 V 7.4688 H 68.0508 V 9.5 Z M 70.1055,4.3438 v -2.125 h 6.4843 v 2.125 z m 8.2422,0.625 2.1093,-0.2813 q 0.3594,1.7813 1.2344,2.5781 0.875,0.7969 2.125,0.7969 1.4844,0 2.5078,-1.0313 Q 87.3477,6 87.3477,4.4688 q 0,-1.4532 -0.9454,-2.3985 -0.9453,-0.9453 -2.414,-0.9453 -0.5938,0 -1.4844,0.2344 l 0.2344,-1.8438 q 0.2031,0.0156 0.3437,0.0156 1.3438,0 2.4219,-0.7031 1.0781,-0.7031 1.0781,-2.1562 0,-1.1719 -0.789,-1.9297 -0.7891,-0.7578 -2.0235,-0.7578 -1.2343,0 -2.0547,0.7734 -0.8203,0.7734 -1.0546,2.3203 l -2.1094,-0.375 q 0.3906,-2.125 1.7578,-3.289 1.3672,-1.1641 3.4141,-1.1641 1.4062,0 2.5859,0.6016 1.1797,0.6015 1.8125,1.6484 0.6328,1.0469 0.6328,2.2188 0,1.1093 -0.6016,2.0234 -0.6015,0.914 -1.7734,1.4453 1.5313,0.3594 2.375,1.4687 0.8438,1.1094 0.8438,2.7657 0,2.25 -1.6407,3.8203 -1.6406,1.5703 -4.1562,1.5703 -2.2656,0 -3.7578,-1.3516 Q 78.5508,7.1094 78.3477,4.9688 Z M 92.5391,9.5 V -7.6875 h 5.9062 q 2.0156,0 3.0625,0.25 1.4844,0.3437 2.5156,1.2344 1.3594,1.1406 2.0391,2.9297 0.6797,1.789 0.6797,4.0859 0,1.9531 -0.461,3.4687 -0.4609,1.5157 -1.1718,2.5079 -0.711,0.9921 -1.5625,1.5547 -0.8516,0.5624 -2.0547,0.8593 Q 100.2891,9.5 98.7266,9.5 Z m 2.2656,-2.0312 h 3.6719 q 1.7031,0 2.664,-0.3126 0.961,-0.3124 1.5391,-0.8906 0.8125,-0.8125 1.2656,-2.1797 0.4531,-1.3671 0.4531,-3.3047 0,-2.7031 -0.8906,-4.1484 -0.8906,-1.4453 -2.1562,-1.9297 -0.9063,-0.3593 -2.9375,-0.3593 h -3.6094 z"
       id="path249" />
  </g>
  <g
     style="color-interpolation:sRGB;fill:#7e2f8e;stroke:#7e2f8e;color-rendering:optimizeSpeed;image-rendering:optimizeSpeed;shape-rendering:crispEdges;text-rendering:optimizeSpeed"
     id="g255">
    <path
       style="stroke:none"
       d="m 255,211.125 v -23.25 h -80 v 23.25 z"
       id="path253" />
  </g>
  <path
     d="m 175,211.125 v -23.25 h 80 v 23.25 z"
     style="color-interpolation:linearRGB;fill:none;fill-rule:evenodd;stroke-width:1.3333;stroke-linecap:butt;color-rendering:optimizeQuality;image-rendering:optimizeQuality;text-rendering:geometricPrecision"
     id="path257" />
  <path
     d="M 167.09683,218.90317 V 84.096831 H 578.21642 V 218.90317 Z"
     style="color-interpolation:linearRGB;fill:none;fill-rule:evenodd;stroke:#262626;stroke-width:1.52696;stroke-linecap:butt;color-rendering:optimizeQuality;image-rendering:optimizeQuality;text-rendering:geometricPrecision"
     id="path259" />
  <g
     transform="translate(0,840)"
     style="color-interpolation:linearRGB;fill:#808080;stroke:#808080;color-rendering:optimizeQuality;image-rendering:optimizeQuality;text-rendering:geometricPrecision"
     id="g265">
    <circle
       r="5.3333001"
       style="stroke:none"
       cx="0"
       cy="0"
       id="circle263" />
  </g>
  <g
     transform="translate(0,840)"
     style="color-interpolation:linearRGB;fill:#ffffdc;stroke:#ffffdc;stroke-width:1.3333;stroke-linecap:butt;color-rendering:optimizeQuality;image-rendering:optimizeQuality;text-rendering:geometricPrecision"
     id="g269">
    <path
       style="stroke:none"
       d="m 0,-5.3333 c 2.9455,0 5.3333,2.3878 5.3333,5.3333 V 0 C 5.3333,2.9455 2.9455,5.3333 0,5.3333 -2.9455,5.3333 -5.3333,2.9455 -5.3333,0 -5.3333,-2.9455 -2.9455,-5.3333 0,-5.3333 Z M 0,-8 c -4.4183,0 -8,3.5817 -8,8 0,4.4183 3.5817,8 8,8 C 4.4183,8 8,4.4183 8,0 V 0 C 8,-4.4183 4.4183,-8 0,-8 Z"
       id="path267" />
  </g>
</svg>
